<mxfile host="app.diagrams.net" modified="2024-08-19T05:48:09.511Z" agent="Mozilla/5.0 (Windows NT 10.0; Win64; x64) AppleWebKit/537.36 (KHTML, like Gecko) Chrome/127.0.0.0 Safari/537.36" version="24.6.5" etag="uXXOTI5enCGfAK_8insV" type="github">
  <diagram name="Page-1" id="IUKlHQsD9xBBCIS57lRR">
    <mxGraphModel>
      <root>
        <mxCell id="0" />
        <mxCell id="1" parent="0" />
      </root>
    </mxGraphModel>
  </diagram>
</mxfile>
